<svg xmlns="http://www.w3.org/2000/svg" viewBox="0 0 221.43 140"><defs><style>.cls-1{fill:#fbb040;}.cls-2{fill:#2bb673;}.cls-3{fill:#ee284c;}.cls-4{fill:#8bcb8e;}.cls-5{fill:#feea5b;}.cls-6{fill:#fff;}.cls-7{fill:#00aeef;}.cls-8{fill:#231f20;}</style></defs><g id="Layer_2" data-name="Layer 2"><g id="Layer_1-2" data-name="Layer 1"><path class="cls-1" d="M78.29,34.76H118a57.71,57.71,0,0,1,57.71,57.71v0a2.29,2.29,0,0,1-2.29,2.29H47.78a2.29,2.29,0,0,1-2.29-2.29V67.56a32.8,32.8,0,0,1,32.8-32.8Z" transform="translate(221.21 129.52) rotate(180)"/><rect class="cls-2" x="143.64" y="62.34" width="75.56" height="32.81" transform="translate(84.69 -93.77) rotate(37.26)"/><path class="cls-3" d="M43.32,7.57H82.64a0,0,0,0,1,0,0V35.65a0,0,0,0,1,0,0H15.23a0,0,0,0,1,0,0v0A28.09,28.09,0,0,1,43.32,7.57Z"/><path class="cls-3" d="M28.09,35.65H67.4a0,0,0,0,1,0,0V63.74a0,0,0,0,1,0,0H0a0,0,0,0,1,0,0v0A28.09,28.09,0,0,1,28.09,35.65Z"/><rect class="cls-4" x="138.65" y="56.47" width="30.61" height="2.16" transform="translate(292.97 -30.15) rotate(127.26)"/><rect class="cls-4" x="162.68" y="69.81" width="63.13" height="2.16" transform="translate(82.56 -103.13) rotate(37.26)"/><path class="cls-5" d="M80.37,3.8h49.16a57.71,57.71,0,0,1,57.71,57.71v0A2.29,2.29,0,0,1,185,63.8H49.87a2.29,2.29,0,0,1-2.29-2.29V36.6A32.8,32.8,0,0,1,80.37,3.8Z"/><path class="cls-3" d="M87.32,0h0a50,50,0,0,1,50,50v90a0,0,0,0,1,0,0h-100a0,0,0,0,1,0,0V50A50,50,0,0,1,87.32,0Z"/><circle class="cls-6" cx="87.32" cy="52.89" r="31.28"/><circle class="cls-7" cx="87.32" cy="52.63" r="17.37"/><circle class="cls-8" cx="87.32" cy="52.63" r="11.03"/><polygon class="cls-4" points="201.18 113.99 143.56 69.3 145.32 67.08 202.51 112.22 201.18 113.99"/><circle class="cls-4" cx="180.59" cy="77.43" r="11.52"/><rect class="cls-4" x="194.52" y="99.62" width="30.61" height="2.16" transform="translate(417 -5.35) rotate(127.26)"/><path class="cls-4" d="M217.52,85.57H218a0,0,0,0,1,0,0v7.51a0,0,0,0,1,0,0h-5.51a0,0,0,0,1,0,0V90.61A5,5,0,0,1,217.52,85.57Z" transform="translate(13.83 206.55) rotate(-52.74)"/><path class="cls-4" d="M203.14,104.24h.47a0,0,0,0,1,0,0v7.51a0,0,0,0,1,0,0H198.1a0,0,0,0,1,0,0v-2.47A5,5,0,0,1,203.14,104.24Z" transform="translate(106.37 -99.56) rotate(37.26)"/><path class="cls-4" d="M152.27,65.73h.47a0,0,0,0,1,0,0v7.51a0,0,0,0,1,0,0h-5.51a0,0,0,0,1,0,0V70.77A5,5,0,0,1,152.27,65.73Z" transform="translate(292.59 -14.1) rotate(124.77)"/></g></g></svg>